<svg width="93" height="93" viewBox="0 0 93 93" fill="none" xmlns="http://www.w3.org/2000/svg">
<g filter="url(#filter0_d_20_2)">
<path d="M85.7033 78.3348H40.6049C43.0502 70.6885 44.4216 60.797 44.4216 50.4554C44.4216 27.5194 30.2201 9.24095 29.6156 8.47424C29.0718 7.7845 28.2422 7.38211 27.3641 7.38211C26.4861 7.38211 25.6564 7.7845 25.1126 8.47424C24.5082 9.24095 10.3066 27.5197 10.3066 50.4554C10.3066 60.797 11.6778 70.6885 14.1233 78.3348H6.86682C5.28359 78.3348 4 79.6184 4 81.2016C4 82.7848 5.28359 84.0684 6.86682 84.0684H85.7033C87.2865 84.0684 88.5701 82.7848 88.5701 81.2016C88.5701 79.6184 87.2863 78.3348 85.7033 78.3348ZM34.5499 78.3348H30.2309V20.1204C34.0786 27.1908 38.688 38.2145 38.688 50.4554C38.688 61.0746 37.1909 71.0929 34.5499 78.3348ZM16.0405 50.4554C16.0405 38.2139 20.6503 27.1903 24.4976 20.1204V78.3348H20.1786C17.5376 71.0929 16.0405 61.0746 16.0405 50.4554Z" fill="#FFBA08"/>
<path d="M80.2585 23.0058C80.2585 15.654 74.2776 9.67311 66.9258 9.67311C59.574 9.67311 53.5931 15.654 53.5931 23.0058C53.5931 30.3576 59.574 36.3385 66.9258 36.3385C74.2776 36.3385 80.2585 30.3576 80.2585 23.0058ZM66.9258 30.6052C62.7356 30.6052 59.3265 27.196 59.3265 23.0058C59.3265 18.8156 62.7356 15.4065 66.9258 15.4065C71.116 15.4065 74.5251 18.8156 74.5251 23.0058C74.5251 27.196 71.116 30.6052 66.9258 30.6052Z" fill="#FFBA08"/>
<path d="M66.9257 9.04315C68.509 9.04315 69.7925 7.75957 69.7925 6.17633V3.79776C69.7925 2.21453 68.509 0.930946 66.9257 0.930946C65.3425 0.930946 64.0589 2.21453 64.0589 3.79776V6.17633C64.0589 7.75957 65.3425 9.04315 66.9257 9.04315Z" fill="#FFBA08"/>
<path d="M64.0589 39.8347V42.2132C64.0589 43.7965 65.3425 45.08 66.9257 45.08C68.509 45.08 69.7925 43.7965 69.7925 42.2132V39.8347C69.7925 38.2514 68.509 36.9678 66.9257 36.9678C65.3425 36.9681 64.0589 38.2517 64.0589 39.8347Z" fill="#FFBA08"/>
<path d="M80.8878 23.0058C80.8878 24.589 82.1714 25.8726 83.7546 25.8726H86.1332C87.7164 25.8726 89 24.589 89 23.0058C89 21.4226 87.7164 20.139 86.1332 20.139H83.7546C82.1716 20.139 80.8878 21.4229 80.8878 23.0058Z" fill="#FFBA08"/>
<path d="M47.7183 25.8726H50.0969C51.6801 25.8726 52.9637 24.589 52.9637 23.0058C52.9637 21.4226 51.6801 20.139 50.0969 20.139H47.7183C46.1351 20.139 44.8515 21.4226 44.8515 23.0058C44.8515 24.589 46.1351 25.8726 47.7183 25.8726Z" fill="#FFBA08"/>
<path d="M78.8255 13.9729C79.5593 13.9729 80.2928 13.693 80.8526 13.1332L82.5345 11.4512C83.6541 10.3316 83.6541 8.51631 82.5345 7.397C81.4147 6.27769 79.5999 6.27769 78.4803 7.397L76.7983 9.07897C75.6787 10.1986 75.6787 12.0139 76.7983 13.1332C77.3581 13.693 78.0917 13.9729 78.8255 13.9729Z" fill="#FFBA08"/>
<path d="M52.9989 32.8784L51.317 34.5604C50.1974 35.68 50.1974 37.4953 51.317 38.6146C51.8768 39.1741 52.6103 39.4543 53.3441 39.4543C54.0779 39.4543 54.8114 39.1744 55.3712 38.6146L57.0532 36.9326C58.1728 35.813 58.1728 33.9977 57.0532 32.8784C55.9336 31.7591 54.1188 31.7591 52.9989 32.8784Z" fill="#FFBA08"/>
<path d="M78.4803 38.6146C79.0401 39.1741 79.7736 39.4543 80.5074 39.4543C81.2412 39.4543 81.9747 39.1744 82.5345 38.6146C83.6541 37.495 83.6541 35.6797 82.5345 34.5604L80.8526 32.8784C79.7327 31.7591 77.9179 31.7591 76.7983 32.8784C75.6787 33.998 75.6787 35.8133 76.7983 36.9326L78.4803 38.6146Z" fill="#FFBA08"/>
<path d="M52.9989 13.1335C53.5587 13.693 54.2923 13.9732 55.0261 13.9732C55.7599 13.9732 56.4934 13.6933 57.0532 13.1335C58.1728 12.0139 58.1728 10.1986 57.0532 9.07926L55.3712 7.39729C54.2513 6.27798 52.4366 6.27798 51.317 7.39729C50.1974 8.51688 50.1974 10.3322 51.317 11.4515L52.9989 13.1335Z" fill="#FFBA08"/>
</g>
<defs>
<filter id="filter0_d_20_2" x="0" y="0" width="93" height="93" filterUnits="userSpaceOnUse" color-interpolation-filters="sRGB">
<feFlood flood-opacity="0" result="BackgroundImageFix"/>
<feColorMatrix in="SourceAlpha" type="matrix" values="0 0 0 0 0 0 0 0 0 0 0 0 0 0 0 0 0 0 127 0" result="hardAlpha"/>
<feOffset dy="4"/>
<feGaussianBlur stdDeviation="2"/>
<feComposite in2="hardAlpha" operator="out"/>
<feColorMatrix type="matrix" values="0 0 0 0 0 0 0 0 0 0 0 0 0 0 0 0 0 0 0.25 0"/>
<feBlend mode="normal" in2="BackgroundImageFix" result="effect1_dropShadow_20_2"/>
<feBlend mode="normal" in="SourceGraphic" in2="effect1_dropShadow_20_2" result="shape"/>
</filter>
</defs>
</svg>
